<?xml version="1.0" encoding="UTF-8"?>
<svg width="338px" height="422px" viewBox="0 0 338 422" version="1.1" xmlns="http://www.w3.org/2000/svg" xmlns:xlink="http://www.w3.org/1999/xlink">
    <!-- Generator: Sketch 52.5 (67469) - http://www.bohemiancoding.com/sketch -->
    <title>logo stag pc 1</title>
    <desc>Created with Sketch.</desc>
    <g id="logo-stag-pc-1" stroke="none" stroke-width="1" fill="none" fill-rule="evenodd">
        <path d="M338,0 L199.386467,0 C200.229249,1.9253484 201.133087,3.79074822 202.140021,5.66414119 L332.324737,5.66414119 L332.324737,416.335859 L11.5422847,416.335859 C10.2951282,418.305169 9.11403301,420.197546 8,422 L338,422 L338,0" id="Fill-1" fill="#B3D3E5"></path>
        <path d="M6.65843374,5.66997665 L197,5.66997665 C196.5718,3.75364656 196.295316,1.88732509 196.087704,0 L1,0 L1,418 C2.86152389,414.681428 4.75099559,411.416866 6.65843374,408.205313 L6.65843374,5.66997665" id="Fill-2" fill="#1A1919"></path>
        <path d="M232.297112,15.4004511 C222.313244,34.7713199 221.690188,37.8951375 242.28098,55.3921158 C262.871772,72.8880941 275.974913,49.1434807 275.974913,49.1434807 C275.974913,49.1434807 274.726805,63.5156414 270.359424,70.3882401 C305.925519,94.1338535 325.891259,102.257379 325.891259,102.257379 C325.891259,102.257379 325.267204,106.631124 320.650202,113.504722 C316.281823,117.254503 299.684977,121.003284 289.702108,124.128102 C279.719238,127.25192 281.34078,157.371161 281.34078,157.371161 C283.212943,189.865263 273.478696,200.986614 273.478696,200.986614 C273.478696,200.986614 277.223021,199.736687 288.453999,197.862796 C299.684977,195.987906 299.809788,202.861504 271.731345,239.729352 C243.652901,276.597199 236.789304,303.46563 236.789304,303.46563 C236.789304,303.46563 234.793329,307.839374 226.057569,314.712973 C234.793329,282.844834 237.289546,277.221162 241.032872,270.347564 C244.776199,263.473965 251.639796,252.226622 256.632229,237.229498 C229.17784,260.974111 220.44208,262.224038 196.107961,265.348856 C171.773843,268.473673 158.04565,268.472673 136.206749,303.46563 C114.367849,338.458586 100.640654,330.085075 69.4419396,348.832981 C49.8686054,360.593294 26.6138509,393.849352 12,417 L332,417 L332,6 L202.13283,6 C204.023964,9.53379365 206.279545,13.1165844 209.211102,17.2743416 C216.698753,27.8977213 221.690188,23.5229768 232.297112,15.4004511" id="Fill-3" fill="#1A1919"></path>
        <path d="M75.5419926,321.239573 C89.267763,311.876427 85.5248249,280.044327 85.5248249,280.044327 C85.5248249,280.044327 81.7808884,283.788986 76.165982,294.400685 C72.4230439,265.688968 81.7808884,253.20444 94.8826694,235.7267 C107.98445,218.24896 135.43699,209.511089 148.537772,203.269325 C161.640551,197.02756 176.614301,182.671202 187.220124,171.436226 C197.825947,160.20025 210.928727,153.58392 210.928727,153.58392 C228.398434,143.597496 231.516384,131.488533 233.388352,125.871045 C235.26032,120.253557 236.508299,113.386517 241.499216,99.6544354 C246.490133,85.9223537 243.371184,85.9233525 237.756278,80.3048655 C220.911559,78.4320365 214.047675,62.8281246 214.047675,62.8281246 C214.047675,62.8281246 224.030508,55.9620838 235.88431,57.8339139 C207.327559,29.6735575 199.845676,16.99026 197.388656,6 L7,6 L7,408 C33.7866177,362.982185 64.2962058,328.911679 75.5419926,321.239573" id="Fill-4" fill="#B3D3E5"></path>
        <path d="M203,6 C202.016458,4.01552302 201.133616,2.03951314 200.310412,0 L197,0 C197.203357,1.99717763 197.474173,3.97212912 197.893596,6 L203,6" id="Fill-5" fill="#FFFFFF"></path>
        <path d="M6.58372135,416.421452 L6.58372135,408 C4.70146848,411.159767 2.83694484,414.371688 1,417.636747 L1,422 L8.51423711,422 C9.61049427,420.224784 10.7727436,418.361004 12,416.421452 L6.58372135,416.421452" id="Fill-6" fill="#FFFFFF"></path>
        <path d="M236.351041,57.8909699 C224.473067,56.0170793 214.469878,62.8906779 214.469878,62.8906779 C214.469878,62.8906779 221.347758,78.5117657 238.226826,80.3866563 C243.853182,86.0113278 246.978491,86.0103279 241.977397,99.7575251 C236.976303,113.504722 235.725779,120.379321 233.849993,126.002993 C231.974208,131.626664 228.8499,143.748956 211.344569,153.746372 C211.344569,153.746372 198.215071,160.369986 187.587621,171.618329 C176.960171,182.865672 161.955888,197.237833 148.82639,203.486468 C135.698893,209.735103 108.190373,218.482592 95.0618759,235.979571 C81.9333784,253.476549 72.5564518,265.974819 76.3070223,294.718141 C81.9333784,284.094761 85.6849493,280.34598 85.6849493,280.34598 C85.6849493,280.34598 89.4355199,312.213119 75.6817605,321.586572 C64.4130417,329.267123 33.8412398,363.375131 7,408.4425 L7,417 L12.5013037,417 C27.1434351,393.849352 50.4431918,360.593294 70.054404,348.832981 C101.313494,330.085075 115.067253,338.458586 136.948416,303.46563 C158.829579,268.472673 172.584338,268.473673 196.965548,265.348856 C221.346758,262.224038 230.099423,260.974111 257.606942,237.229498 C252.604847,252.226622 245.727967,263.473965 241.977397,270.347564 C238.226826,277.221162 235.725779,282.844834 226.973114,314.712973 C235.725779,307.839374 237.725616,303.46563 237.725616,303.46563 C237.725616,303.46563 244.602496,276.597199 272.735277,239.729352 C300.868057,202.861504 300.743005,195.987906 289.490293,197.862796 C278.237581,199.736687 274.48601,200.986614 274.48601,200.986614 C274.48601,200.986614 284.239094,189.865263 282.363308,157.371161 C282.363308,157.371161 280.738628,127.25192 290.740816,124.128102 C300.743005,121.003284 317.371968,117.254503 321.748801,113.504722 C326.374738,106.631124 327,102.257379 327,102.257379 C327,102.257379 306.995623,94.1338535 271.360701,70.3882401 C275.736533,63.5156414 276.987057,49.1434807 276.987057,49.1434807 C276.987057,49.1434807 263.85856,72.8880941 243.22792,55.3921158 C222.597281,37.8951375 223.221543,34.7713199 233.224732,15.4004511 C222.597281,23.5229768 217.596187,27.8977213 210.094046,17.2743416 C207.156816,13.1165844 204.896869,9.53379365 203.002076,6 L197.776888,6 C200.238919,17.0023575 207.736058,29.6996161 236.351041,57.8909699" id="Fill-7" fill="#FFFFFF"></path>
        <path d="M285,89.1886724 C280.783363,93.3362059 278.189557,94.0278071 276.243717,91.6087582 C274.297876,89.1886724 273,84.0042556 273,84.0042556 C273,84.0042556 281.433274,83.6589735 285,89.1886724" id="Fill-8" fill="#1A1919"></path>
    </g>
</svg>