<?xml version="1.0" encoding="UTF-8"?>
<svg width="325px" height="413px" viewBox="0 0 325 413" version="1.1" xmlns="http://www.w3.org/2000/svg" xmlns:xlink="http://www.w3.org/1999/xlink">
    <!-- Generator: Sketch 52.5 (67469) - http://www.bohemiancoding.com/sketch -->
    <title>logo stag pc 1</title>
    <desc>Created with Sketch.</desc>
    <g id="logo-stag-pc-1" stroke="none" stroke-width="1" fill="none" fill-rule="evenodd">
        <path d="M203,6 C202.016458,4.01552302 201.133616,2.03951314 200.310412,0 L197,0 C197.203357,1.99717763 197.474173,3.97212912 197.893596,6 L203,6" id="Fill-5" fill="#FFFFFF"></path>
        <path d="M6.58372135,416.421452 L6.58372135,408 C4.70146848,411.159767 2.83694484,414.371688 1,417.636747 L1,422 L8.51423711,422 C9.61049427,420.224784 10.7727436,418.361004 12,416.421452 L6.58372135,416.421452" id="Fill-6" fill="#FFFFFF"></path>
        <path d="M208.469878,56.8906779 C208.469878,56.8906779 215.347758,72.5117657 232.226826,74.3866563 C237.853182,80.0113278 240.978491,80.0103279 235.977397,93.7575251 C230.976303,107.504722 229.725779,114.379321 227.849993,120.002993 C225.974208,125.626664 222.8499,137.748956 205.344569,147.746372 C205.344569,147.746372 192.215071,154.369986 181.587621,165.618329 C170.960171,176.865672 155.955888,191.237833 142.82639,197.486468 C129.698893,203.735103 102.190373,212.482592 89.0618759,229.979571 C75.9333784,247.476549 66.5564518,259.974819 70.3070223,288.718141 C75.9333784,278.094761 79.6849493,274.34598 79.6849493,274.34598 C79.6849493,274.34598 83.4355199,306.213119 69.6817605,315.586572 C58.4130417,323.267123 27.8412398,357.375131 1,402.4425 L1,411 L6.50130367,411 C21.1434351,387.849352 44.4431918,354.593294 64.054404,342.832981 C95.3134938,324.085075 109.067253,332.458586 130.948416,297.46563 C152.829579,262.472673 166.584338,262.473673 190.965548,259.348856 C215.346758,256.224038 224.099423,254.974111 251.606942,231.229498 C246.604847,246.226622 239.727967,257.473965 235.977397,264.347564 C232.226826,271.221162 229.725779,276.844834 220.973114,308.712973 C229.725779,301.839374 231.725616,297.46563 231.725616,297.46563 C231.725616,297.46563 238.602496,270.597199 266.735277,233.729352 C294.868057,196.861504 294.743005,189.987906 283.490293,191.862796 C272.237581,193.736687 268.48601,194.986614 268.48601,194.986614 C268.48601,194.986614 278.239094,183.865263 276.363308,151.371161 C276.363308,151.371161 274.738628,121.25192 284.740816,118.128102 C294.743005,115.003284 311.371968,111.254503 315.748801,107.504722 C320.374738,100.631124 321,96.2573791 321,96.2573791 C321,96.2573791 300.995623,88.1338535 265.360701,64.3882401 C269.736533,57.5156414 270.987057,43.1434807 270.987057,43.1434807 C270.987057,43.1434807 257.85856,66.8880941 237.22792,49.3921158 C216.597281,31.8951375 217.221543,28.7713199 227.224732,9.40045107 C216.597281,17.5229768 211.596187,21.8977213 204.094046,11.2743416 C201.156816,7.11658443 198.896869,3.53379365 197.002076,0 L191.776888,0 C194.238919,11.0023575 201.736058,23.6996161 230.351041,51.8909699 C218.473067,50.0170793 208.469878,56.8906779 208.469878,56.8906779 Z" id="Fill-7" fill="#1A1919"></path>
    </g>
</svg>