<?xml version="1.0" encoding="UTF-8"?>
<svg width="320px" height="422px" viewBox="0 0 320 422" version="1.1" xmlns="http://www.w3.org/2000/svg" xmlns:xlink="http://www.w3.org/1999/xlink">
    <!-- Generator: Sketch 52.5 (67469) - http://www.bohemiancoding.com/sketch -->
    <title>stag</title>
    <desc>Created with Sketch.</desc>
    <g id="Page-1" stroke="none" stroke-width="1" fill="none" fill-rule="evenodd">
        <g id="stag" fill="#FFFFFF">
            <path d="M202,6 C201.016458,4.01552302 200.133616,2.03951314 199.310412,0 L196,0 C196.203357,1.99717763 196.474173,3.97212912 196.893596,6 L202,6" id="Fill-5"></path>
            <path d="M5.58372135,416.421452 L5.58372135,408 C3.70146848,411.159767 1.83694484,414.371688 0,417.636747 L0,422 L7.51423711,422 C8.61049427,420.224784 9.7727436,418.361004 11,416.421452 L5.58372135,416.421452" id="Fill-6"></path>
            <path d="M207.469878,56.8906779 C207.469878,56.8906779 214.347758,72.5117657 231.226826,74.3866563 C236.853182,80.0113278 239.978491,80.0103279 234.977397,93.7575251 C229.976303,107.504722 228.725779,114.379321 226.849993,120.002993 C224.974208,125.626664 221.8499,137.748956 204.344569,147.746372 C204.344569,147.746372 191.215071,154.369986 180.587621,165.618329 C169.960171,176.865672 154.955888,191.237833 141.82639,197.486468 C128.698893,203.735103 101.190373,212.482592 88.0618759,229.979571 C74.9333784,247.476549 65.5564518,259.974819 69.3070223,288.718141 C74.9333784,278.094761 78.6849493,274.34598 78.6849493,274.34598 C78.6849493,274.34598 82.4355199,306.213119 68.6817605,315.586572 C57.4130417,323.267123 26.8412398,357.375131 0,402.4425 L0,411 L5.50130367,411 C20.1434351,387.849352 43.4431918,354.593294 63.054404,342.832981 C94.3134938,324.085075 108.067253,332.458586 129.948416,297.46563 C151.829579,262.472673 165.584338,262.473673 189.965548,259.348856 C214.346758,256.224038 223.099423,254.974111 250.606942,231.229498 C245.604847,246.226622 238.727967,257.473965 234.977397,264.347564 C231.226826,271.221162 228.725779,276.844834 219.973114,308.712973 C228.725779,301.839374 230.725616,297.46563 230.725616,297.46563 C230.725616,297.46563 237.602496,270.597199 265.735277,233.729352 C293.868057,196.861504 293.743005,189.987906 282.490293,191.862796 C271.237581,193.736687 267.48601,194.986614 267.48601,194.986614 C267.48601,194.986614 277.239094,183.865263 275.363308,151.371161 C275.363308,151.371161 273.738628,121.25192 283.740816,118.128102 C293.743005,115.003284 310.371968,111.254503 314.748801,107.504722 C319.374738,100.631124 320,96.2573791 320,96.2573791 C320,96.2573791 299.995623,88.1338535 264.360701,64.3882401 C268.736533,57.5156414 269.987057,43.1434807 269.987057,43.1434807 C269.987057,43.1434807 256.85856,66.8880941 236.22792,49.3921158 C215.597281,31.8951375 216.221543,28.7713199 226.224732,9.40045107 C215.597281,17.5229768 210.596187,21.8977213 203.094046,11.2743416 C200.156816,7.11658443 197.896869,3.53379365 196.002076,0 L190.776888,0 C193.238919,11.0023575 200.736058,23.6996161 229.351041,51.8909699 C217.473067,50.0170793 207.469878,56.8906779 207.469878,56.8906779 Z" id="Fill-7"></path>
        </g>
    </g>
</svg>